<?xml version="1.0" encoding="iso-8859-1"?>
<!-- Generator: Adobe Illustrator 21.1.0, SVG Export Plug-In . SVG Version: 6.00 Build 0)  -->
<svg version="1.1" id="Layer_1" xmlns="http://www.w3.org/2000/svg" xmlns:xlink="http://www.w3.org/1999/xlink" x="0px" y="0px"
	 viewBox="0 0 1263 946" style="enable-background:new 0 0 1263 946;" xml:space="preserve">
<g>
	<path style="fill:#FFFFFF;" d="M698.907,633.194c0,0-270.767-14.754-529.028,291.957L24.066,644.64
		c0,0,183.676-301.604,590.698-272.613L698.907,633.194z"/>
	<path style="fill:#ADB9C3;" d="M229.749,799.312C351.988,662.808,506.134,619.11,590.224,605.134
		c-9.948-42.854,26.651-66.172,39.962-73.092l-25.399-77.836c-17.138,2.609-69.646,6.096-85.314-43.422
		C316.628,427.882,172.374,539.421,106.26,602.019c36.825,46.994,7.444,78.635-11.303,92.391l60.374,102.955
		C188.324,779.921,215.08,790.036,229.749,799.312"/>
	<path style="fill:none;stroke:#7D8FA0;stroke-width:12;stroke-linecap:round;stroke-linejoin:round;" d="M229.749,799.312
		C351.988,662.808,506.134,619.11,590.224,605.134c-9.948-42.854,26.651-66.172,39.962-73.092l-25.399-77.836
		c-17.138,2.609-69.646,6.096-85.314-43.422C316.628,427.882,172.374,539.421,106.26,602.019
		c36.825,46.994,7.444,78.635-11.303,92.391l60.374,102.955C188.324,779.921,215.08,790.036,229.749,799.312z"/>
</g>
<g>
	<path style="fill:#FFFFFF;" d="M400.248,587.938c-5.234,13.92-15.999,26.574-29.974,33.168
		c-23.051,10.877-48.878,5.801-65.386-10.896l-16.283,7.682l-3.465-7.35l14.265-6.729c-2.074-2.898-3.856-5.932-5.42-9.246
		c-1.496-3.17-2.635-6.332-3.489-9.629l-14.261,6.732l-3.469-7.348l16.138-7.613c-2.321-23.213,10.467-46.512,33.807-57.525
		c13.833-6.527,30.027-7.297,43.675-2.641l-2.48,11.916c-11.665-4.184-24.714-3.842-35.952,1.459
		c-16.714,7.885-26.558,23.984-26.513,40.877l39.045-18.422l3.467,7.344l-41.495,19.578c0.638,3.223,1.704,6.596,3.198,9.764
		c1.564,3.318,3.56,6.426,5.708,9.111l41.494-19.582l3.466,7.35l-38.759,18.289c13.02,10.416,31.491,12.975,47.915,5.227
		c10.949-5.168,19.58-14.879,24.259-26.246L400.248,587.938z"/>
</g>
<g>
	<path style="fill:#FFFFFF;" d="M834.722,19.142c0,0,59.639,250.162,408.182,402.225l-215.703,208.256
		c0,0-323.776-85.625-407.231-463.515L834.722,19.142z"/>
	<path style="fill:#EEEBE3;" d="M1112.335,400.884c-157.09-74.31-238.41-202.674-273.806-275.357
		c-36.276,20.607-67.353-6.379-77.235-16.613l-63.916,44.094c6.996,14.877,24.332,61.678-16.461,89.283
		c70.272,179.812,210.605,280.879,285.356,324.1c32.791-46.16,69.487-27.984,87.05-14.65l77.32-82.67
		C1105.882,443.778,1107.861,416.724,1112.335,400.884"/>
	<path style="fill:none;stroke:#DCD7C8;stroke-width:12;stroke-linecap:round;stroke-linejoin:round;" d="M1112.335,400.884
		c-157.09-74.31-238.41-202.674-273.806-275.357c-36.276,20.607-67.353-6.379-77.235-16.613l-63.916,44.094
		c6.996,14.877,24.332,61.678-16.461,89.283c70.272,179.812,210.605,280.879,285.356,324.1c32.791-46.16,69.487-27.984,87.05-14.65
		l77.32-82.67C1105.882,443.778,1107.861,416.724,1112.335,400.884z"/>
	<path style="fill:#FFFFFF;" d="M927.119,316.937c-3.323-3.441-6.849-6.078-10.546-7.859c-3.695-1.781-7.565-2.695-11.478-2.693
		c-4.079,0-8.184,0.99-12.197,2.904c-4.016,1.912-7.949,4.738-11.775,8.434l-13.465,12.996l-10.097-10.447l-7.537,7.275
		l10.097,10.447l-27.479,26.541l-10.098-10.455l-7.863,7.602l52.385,54.238l7.868-7.59l-1.738-1.801l-32.438-33.584l27.485-26.541
		l20.856,21.602l7.536-7.285l-20.862-21.592l13.465-13.002c2.831-2.734,5.613-4.727,8.286-6.02c2.678-1.295,5.233-1.9,7.713-1.902
		c2.36,0.004,4.674,0.547,7.012,1.688c2.333,1.141,4.685,2.889,7.009,5.297c4.838,5.033,7.36,11.387,7.375,18.949
		c0,1.941-0.171,3.963-0.521,6.055l-0.573,3.426l11.312-1.799l0.263-1.824c0.312-2.17,0.468-4.32,0.468-6.438
		C937.59,333.448,934.002,324.062,927.119,316.937z"/>
</g>
</svg>
