<?xml version="1.0" encoding="utf-8"?>
<!-- Generator: Adobe Illustrator 19.1.0, SVG Export Plug-In . SVG Version: 6.00 Build 0)  -->
<svg version="1.1" id="Layer_1" xmlns="http://www.w3.org/2000/svg" xmlns:xlink="http://www.w3.org/1999/xlink" x="0px" y="0px"
	 viewBox="-553 317 173 167" style="enable-background:new -553 317 173 167;" xml:space="preserve">
<style type="text/css">
	.st0{fill:#F06C2F;}
	.st1{fill:#FFFFFF;}
</style>
<circle class="st0" cx="-466.5" cy="400.5" r="82.5"/>
<g>
	<path class="st1" d="M-465.3,380l-6.7,8.2c-3.5-4-8.5-6.6-13.3-6.6c-8.8,0-15.5,6.8-15.5,15.7c0,8.9,6.8,15.8,15.5,15.8
		c4.6,0,9.6-2.3,13.3-6l6.8,7.4c-5.4,5.5-13.2,9.1-20.7,9.1c-15.3,0-26.8-11.3-26.8-26.1c0-14.7,11.8-25.8,27.2-25.8
		C-478.1,371.5-470.4,374.8-465.3,380z"/>
	<path class="st1" d="M-426.1,423h-9.6v-4.9c-2.4,3.4-6,5.3-10.6,5.3c-9.6,0-15.9-7-15.9-17.4c0-10.3,6.3-17.1,15.7-17.1
		c4.8,0,8.5,1.9,10.9,5.3v-17.7h9.6V423H-426.1z M-435.7,406.3c0-5.5-3.4-9.3-8.4-9.3s-8.5,3.9-8.5,9.3c0.1,5.5,3.4,9.3,8.5,9.3
		C-439.2,415.6-435.7,411.8-435.7,406.3z"/>
</g>
</svg>
