<?xml version="1.0" encoding="iso-8859-1"?>
<!-- Generator: Adobe Illustrator 21.1.0, SVG Export Plug-In . SVG Version: 6.00 Build 0)  -->
<svg version="1.1" id="Layer_1" xmlns="http://www.w3.org/2000/svg" xmlns:xlink="http://www.w3.org/1999/xlink" x="0px" y="0px"
	 viewBox="0 0 250.98 261.765" style="enable-background:new 0 0 250.98 261.765;" xml:space="preserve">
<path style="fill:#010101;" d="M226.809,12.216h-125.55c-11.178,0.013-20.237,9.072-20.25,20.25V55.32
	c-5.228-1.723-10.696-2.602-16.2-2.604c-29.049-0.038-52.628,23.48-52.666,52.528c-0.024,18.16,9.322,35.047,24.721,44.672H24.309
	c-2.237,0-4.05,1.813-4.05,4.05v20.25H8.109c-2.237,0-4.05,1.813-4.05,4.05v24.3c0,2.237,1.813,4.05,4.05,4.05h12.15v16.2H8.109
	c-2.237,0-4.05,1.813-4.05,4.05v24.3c0,2.237,1.813,4.05,4.05,4.05h89.1c0.415-0.019,0.825-0.102,1.215-0.247
	c0.937,0.155,1.885,0.238,2.835,0.247h125.55c11.178-0.013,20.237-9.072,20.25-20.25v-202.5
	C247.045,21.287,237.987,12.229,226.809,12.216z M113.409,198.516h-12.15v-16.2h12.15c2.237,0,4.05-1.813,4.05-4.05v-24.3
	c0-2.237-1.813-4.05-4.05-4.05H92.786c0.077-0.049,0.142-0.109,0.219-0.158c1.643-1.053,3.226-2.195,4.743-3.422
	c0.271-0.219,0.543-0.437,0.81-0.66c1.468-1.23,2.867-2.538,4.192-3.92c0.227-0.235,0.441-0.474,0.66-0.713
	c1.334-1.434,2.587-2.94,3.754-4.512c0.105-0.142,0.198-0.292,0.304-0.437c1.147-1.589,2.205-3.24,3.171-4.945
	c0.073-0.134,0.154-0.255,0.227-0.385c0.948-1.727,1.797-3.507,2.543-5.33c0.117-0.288,0.243-0.571,0.36-0.859
	c0.701-1.786,1.306-3.608,1.81-5.459c0.089-0.332,0.174-0.664,0.259-1c0.48-1.888,0.855-3.801,1.122-5.731
	c0.036-0.267,0.057-0.539,0.089-0.81c0.261-2.059,0.397-4.133,0.409-6.209c0-1.251-0.049-2.499-0.138-3.738
	c-0.028-0.405-0.089-0.81-0.13-1.215c-0.077-0.81-0.154-1.644-0.271-2.458c-0.069-0.482-0.17-0.956-0.251-1.434
	c-0.126-0.733-0.247-1.466-0.405-2.191c-0.109-0.506-0.247-1.004-0.373-1.507c-0.17-0.684-0.332-1.373-0.531-2.045
	c-0.15-0.514-0.324-1.017-0.49-1.527c-0.211-0.648-0.405-1.3-0.656-1.94c-0.186-0.51-0.405-1.008-0.599-1.511
	c-0.251-0.628-0.502-1.251-0.778-1.863c-0.227-0.498-0.47-0.984-0.705-1.474c-0.296-0.603-0.587-1.215-0.903-1.79
	c-0.259-0.486-0.535-0.96-0.81-1.434c-0.332-0.575-0.664-1.146-1.017-1.709c-0.292-0.47-0.599-0.927-0.907-1.385
	c-0.369-0.547-0.741-1.093-1.126-1.62c-0.328-0.446-0.664-0.887-1.004-1.324c-0.4-0.524-0.805-1.038-1.215-1.543
	c-0.356-0.425-0.721-0.842-1.089-1.256c-0.441-0.494-0.891-0.984-1.349-1.462c-0.385-0.405-0.774-0.81-1.17-1.179
	c-0.478-0.466-0.964-0.919-1.458-1.369c-0.405-0.373-0.81-0.737-1.251-1.098c-0.506-0.433-1.025-0.85-1.551-1.264
	c-0.441-0.348-0.883-0.693-1.332-1.025c-0.543-0.405-1.094-0.778-1.648-1.154c-0.466-0.316-0.931-0.628-1.405-0.931
	c-0.575-0.36-1.162-0.705-1.75-1.049c-0.486-0.279-0.968-0.563-1.462-0.81c-0.19-0.101-0.369-0.219-0.559-0.316v-6.03h149.834v162
	h-121.5v-12.15C117.459,200.329,115.646,198.516,113.409,198.516z M89.109,32.466c0-6.71,5.44-12.15,12.15-12.15h125.55
	c6.71,0,12.15,5.44,12.15,12.15v12.15H89.109V32.466z M20.259,105.366c0.04-24.564,19.986-44.444,44.55-44.404
	c24.564,0.04,44.444,19.986,44.404,44.55c-0.04,24.507-19.897,44.364-44.404,44.404C40.217,149.887,20.288,129.958,20.259,105.366z
	 M28.359,158.016h81v16.2h-81V158.016z M12.159,182.316h81v16.2h-81V182.316z M28.359,206.616h81v16.2h-81V206.616z M12.159,230.916
	h81v16.2h-81V230.916z M238.959,234.966c0,6.71-5.44,12.15-12.15,12.15h-125.55v-16.2h12.15c2.237,0,4.05-1.813,4.05-4.05v-4.05
	h121.5V234.966z"/>
<rect x="157.959" y="28.416" style="fill:#010101;" width="8.1" height="8.1"/>
<g>
	<path style="fill:#010101;" d="M46.442,127.042v-4.079c5.467-2.774,9.301-8.159,9.301-14.278c0-1.958-0.082-3.59-0.408-5.711
		h-8.403v-5.141h7.588c-0.408-2.447-0.897-5.63-0.897-8.812c0-9.627,6.608-15.909,15.665-15.909c4.242,0,7.18,0.979,8.893,2.039
		l-1.55,5.385c-1.469-0.815-3.917-1.632-7.343-1.632c-6.364,0-8.894,4.406-8.894,10.199c0,3.508,0.408,6.119,0.897,8.729H73.04
		v5.141H61.944c0.245,3.1,0.408,6.2-0.326,9.138c-0.897,3.508-2.856,6.445-5.63,8.812v0.163h24.313v5.956H46.442z"/>
</g>
</svg>
