<?xml version="1.0" encoding="utf-8"?>
<!-- Generator: Adobe Illustrator 21.1.0, SVG Export Plug-In . SVG Version: 6.00 Build 0)  -->
<svg version="1.1" id="Layer_1" xmlns="http://www.w3.org/2000/svg" xmlns:xlink="http://www.w3.org/1999/xlink" x="0px" y="0px"
	 viewBox="0 0 283.5 283.5" style="enable-background:new 0 0 283.5 283.5;" xml:space="preserve">
<style type="text/css">
	.st0{fill:#FFFFFF;}
	.st1{clip-path:url(#SVGID_2_);fill:#5A81A3;}
</style>
<circle class="st0" cx="164.6" cy="140.2" r="88.4"/>
<g>
	<defs>
		<rect id="SVGID_1_" x="4" y="126.8" width="76.5" height="76.5"/>
	</defs>
	<clipPath id="SVGID_2_">
		<use xlink:href="#SVGID_1_"  style="overflow:visible;"/>
	</clipPath>
	<path class="st1" d="M105.8,143.3c11.7,4.9,21.6,13.2,28.6,23.6c7,10.4,11.1,22.9,11.1,36.3c0,9-1.8,17.5-5.1,25.3
		c-4.9,11.7-13.2,21.6-23.6,28.6c-10.4,7-22.9,11.1-36.3,11.1c-9,0-17.5-1.8-25.3-5.1c-11.7-4.9-21.6-13.2-28.6-23.6
		c-7-10.4-11.1-22.9-11.1-36.3c0-9,1.8-17.5,5.1-25.3c4.9-11.7,13.2-21.6,23.6-28.6c10.4-7,22.9-11.1,36.3-11.1
		C89.5,138.2,98,140,105.8,143.3 M50.7,132.8c-13.7,5.8-25.4,15.5-33.7,27.7C8.8,172.7,4,187.5,4,203.3c0,10.5,2.1,20.6,6,29.8
		c5.8,13.7,15.5,25.4,27.7,33.7c12.2,8.3,26.9,13.1,42.7,13.1c10.5,0,20.6-2.1,29.7-6c13.7-5.8,25.4-15.5,33.7-27.7
		c8.3-12.2,13.1-26.9,13.1-42.7c0-10.5-2.1-20.6-6-29.8c-5.8-13.7-15.5-25.4-27.7-33.7c-12.2-8.3-26.9-13.1-42.7-13.1
		C70,126.8,59.9,128.9,50.7,132.8"/>
	<path class="st1" d="M99.1,159.2c8.6,3.6,15.9,9.7,21,17.3c5.2,7.6,8.2,16.8,8.2,26.7c0,6.6-1.3,12.9-3.8,18.6
		c-3.6,8.6-9.7,15.9-17.3,21.1c-7.6,5.2-16.8,8.2-26.7,8.2c-6.6,0-12.9-1.3-18.6-3.8c-8.6-3.6-15.9-9.7-21.1-17.3
		c-5.2-7.6-8.2-16.8-8.2-26.7c0-6.6,1.3-12.9,3.8-18.6c3.6-8.6,9.7-15.9,17.3-21c7.6-5.2,16.8-8.2,26.7-8.2
		C87.1,155.5,93.4,156.8,99.1,159.2 M31.4,170.2c-6.4,9.4-10.1,20.9-10.1,33.1c0,8.2,1.7,16,4.7,23c4.5,10.6,12,19.7,21.5,26.1
		c9.4,6.4,20.9,10.1,33.1,10.1c8.1,0,16-1.7,23-4.7c10.6-4.5,19.7-12,26.1-21.5c6.4-9.4,10.1-20.9,10.1-33.1c0-8.2-1.7-16-4.7-23
		c-4.5-10.6-12-19.7-21.5-26.1c-9.4-6.4-20.9-10.1-33.1-10.1c-8.2,0-16,1.7-23,4.7C46.8,153.2,37.8,160.7,31.4,170.2"/>
	<path class="st1" d="M92.4,175.1c5.5,2.3,10.2,6.2,13.5,11.1c3.3,4.9,5.2,10.7,5.2,17.1c0,4.2-0.9,8.2-2.4,11.9
		c-2.3,5.5-6.2,10.2-11.1,13.5c-4.9,3.3-10.7,5.2-17.1,5.2c-4.2,0-8.2-0.9-11.9-2.4c-5.5-2.3-10.2-6.2-13.5-11.1
		c-3.3-4.9-5.2-10.7-5.2-17.1c0-4.2,0.9-8.2,2.4-11.9c2.3-5.5,6.2-10.2,11.1-13.5c4.9-3.3,10.7-5.2,17.1-5.2
		C84.7,172.7,88.7,173.6,92.4,175.1 M45.7,179.8c-4.5,6.7-7.2,14.8-7.2,23.5c0,5.8,1.2,11.3,3.3,16.3c3.2,7.5,8.5,13.9,15.2,18.5
		c6.7,4.5,14.8,7.2,23.5,7.2c5.8,0,11.3-1.2,16.3-3.3c7.5-3.2,13.9-8.5,18.5-15.2c4.5-6.7,7.2-14.8,7.2-23.5
		c0-5.8-1.2-11.3-3.3-16.3c-3.2-7.5-8.5-13.9-15.2-18.5c-6.7-4.5-14.8-7.2-23.5-7.2c-5.8,0-11.3,1.2-16.3,3.3
		C56.6,167.8,50.2,173.1,45.7,179.8"/>
	<path class="st1" d="M85.7,191c2.4,1,4.4,2.7,5.8,4.8c1.4,2.1,2.3,4.6,2.3,7.4c0,1.8-0.4,3.6-1,5.2c-1,2.4-2.7,4.4-4.8,5.8
		c-2.1,1.4-4.7,2.3-7.4,2.3c-1.9,0-3.6-0.4-5.2-1c-2.4-1-4.4-2.7-5.8-4.8c-1.4-2.1-2.3-4.6-2.3-7.4c0-1.9,0.4-3.6,1-5.2
		c1-2.4,2.7-4.4,4.8-5.9c2.1-1.4,4.7-2.3,7.4-2.3C82.3,190,84.1,190.4,85.7,191 M60,189.5c-2.7,3.9-4.2,8.7-4.2,13.8
		c0,3.4,0.7,6.7,1.9,9.6c1.9,4.4,5,8.2,8.9,10.9c3.9,2.7,8.7,4.2,13.8,4.2c3.4,0,6.7-0.7,9.6-1.9c4.4-1.9,8.2-5,10.9-8.9
		c2.7-3.9,4.2-8.7,4.2-13.8c0-3.4-0.7-6.7-1.9-9.6c-1.9-4.4-5-8.2-8.9-10.9c-3.9-2.7-8.7-4.2-13.8-4.2c-3.4,0-6.7,0.7-9.6,1.9
		C66.4,182.4,62.7,185.5,60,189.5"/>
</g>
<g>
	<path d="M216.5,108.6c2,0,3.7-1.6,3.7-3.7v-8.2c0-2-1.6-3.7-3.7-3.7h-14v-5.3c0-3.2-3-5.8-6.6-5.8h-33.8c-1.1,0-2.1,0.9-2.1,2.1
		c0,4.2-4.4,9.4-9.5,9.4c-5.1,0-9.5-5.2-9.5-9.4c0-1.1-0.9-2.1-2.1-2.1h-22.7c-1.1,0-2.1,0.9-2.1,2.1c0,1.1,0.9,2.1,2.1,2.1h20.9
		c1.1,5.7,6.6,11.4,13.4,11.4c6.8,0,12.3-5.8,13.4-11.4h31.9c1.3,0,2.5,0.8,2.5,1.7V215c0,0.9-1.2,1.7-2.5,1.7h-90.7
		c-1.3,0-2.5-0.8-2.5-1.7V87.8c0-0.9,1.2-1.7,2.5-1.7h3.5c1.1,0,2.1-0.9,2.1-2.1c0-1.1-0.9-2.1-2.1-2.1h-3.5c-3.7,0-6.6,2.6-6.6,5.8
		v5.3h-14c-2,0-3.7,1.6-3.7,3.7v8.2c0,2,1.6,3.7,3.7,3.7h14v5.4h-14c-2,0-3.7,1.6-3.7,3.7v8.2c0,2,1.6,3.7,3.7,3.7h14v5.4h-14
		c-2,0-3.7,1.6-3.7,3.7v8.2c0,2,1.6,3.7,3.7,3.7h14v5.4h-14c-2,0-3.7,1.6-3.7,3.7v8.2c0,2,1.6,3.7,3.7,3.7h14v5.4h-14
		c-2,0-3.7,1.6-3.7,3.7v8.2c0,2,1.6,3.7,3.7,3.7h14v5.4h-14c-2,0-3.7,1.6-3.7,3.7v8.2c0,2,1.6,3.7,3.7,3.7h14v1.8
		c0,3.2,3,5.8,6.6,5.8h90.7c3.7,0,6.6-2.6,6.6-5.8v-1.8h14c2,0,3.7-1.6,3.7-3.7v-8.2c0-2-1.6-3.7-3.7-3.7h-14v-5.4h14
		c2,0,3.7-1.6,3.7-3.7v-8.2c0-2-1.6-3.7-3.7-3.7h-14v-5.4h14c2,0,3.7-1.6,3.7-3.7v-8.2c0-2-1.6-3.7-3.7-3.7h-14v-5.4h14
		c2,0,3.7-1.6,3.7-3.7v-8.2c0-2-1.6-3.7-3.7-3.7h-14v-5.4h14c2,0,3.7-1.6,3.7-3.7v-8.2c0-2-1.6-3.7-3.7-3.7h-14v-5.4H216.5z
		 M202.6,97.2h13.5v7.2h-13.5V97.2z M98.6,209H85.2v-7.2h13.5V209z M98.6,188.1H85.2v-7.2h13.5V188.1z M98.6,167.2H85.2V160h13.5
		V167.2z M98.6,146.3H85.2v-7.2h13.5V146.3z M98.6,125.3H85.2v-7.2h13.5V125.3z M98.6,104.4H85.2v-7.2h13.5V104.4z M202.6,201.8
		h13.5v7.2h-13.5V201.8z M202.6,180.9h13.5v7.2h-13.5V180.9z M202.6,160h13.5v7.2h-13.5V160z M202.6,139.1h13.5v7.2h-13.5V139.1z
		 M202.6,118.1h13.5v7.2h-13.5V118.1z M202.6,118.1"/>
	<path d="M174.4,143.7l-1.3-0.2c-0.3-0.9-0.7-1.7-1.1-2.5l0.8-1.1c1.5-1.9,1.3-4.6-0.4-6.3l-4.2-4.2c-1.7-1.7-4.4-1.9-6.2-0.4
		l-1.1,0.8c-0.8-0.4-1.7-0.7-2.5-1l-0.2-1.3c-0.3-2.4-2.3-4.1-4.7-4.1h-6c-2.4,0-4.4,1.8-4.7,4.1l-0.2,1.3c-0.9,0.3-1.7,0.7-2.5,1.1
		l-1.1-0.8c-1.9-1.5-4.6-1.3-6.2,0.4l-4.2,4.2c-1.7,1.7-1.9,4.4-0.4,6.3l0.8,1.1c-0.4,0.8-0.8,1.7-1.1,2.5l-1.3,0.2
		c-2.4,0.3-4.1,2.3-4.1,4.7v6c0,2.4,1.8,4.4,4.1,4.7l1.3,0.2c0.3,0.9,0.6,1.7,1,2.5l-0.8,1.1c-1.5,1.9-1.3,4.6,0.4,6.2l4.2,4.2
		c1.7,1.7,4.4,1.9,6.3,0.4l1.1-0.8c0.8,0.4,1.7,0.8,2.5,1.1l0.2,1.3c0.3,2.4,2.3,4.1,4.7,4.1h6c2.4,0,4.4-1.8,4.7-4.1l0.2-1.3
		c0.9-0.3,1.7-0.6,2.5-1l1.1,0.8c1.9,1.5,4.6,1.3,6.3-0.4l4.2-4.2c1.7-1.7,1.9-4.4,0.4-6.2l-0.8-1.1c0.4-0.8,0.7-1.7,1-2.5l1.3-0.2
		c2.4-0.3,4.1-2.3,4.1-4.7v-6C178.6,146,176.8,144,174.4,143.7L174.4,143.7z M174.4,154.4c0,0.3-0.2,0.5-0.5,0.6l-2.7,0.3
		c-0.8,0.1-1.5,0.7-1.7,1.5c-0.4,1.5-1,2.9-1.7,4.2c-0.4,0.7-0.3,1.6,0.2,2.3l1.6,2.1c0.2,0.2,0.2,0.6,0,0.8l-4.2,4.2
		c-0.2,0.2-0.5,0.2-0.8,0l-2.1-1.6c-0.7-0.5-1.6-0.6-2.3-0.2c-1.3,0.7-2.7,1.3-4.2,1.7c-0.8,0.2-1.4,0.9-1.5,1.7l-0.3,2.7
		c0,0.3-0.3,0.5-0.6,0.5h-6c-0.3,0-0.5-0.2-0.6-0.5l-0.3-2.6c-0.1-0.8-0.7-1.5-1.5-1.7c-1.5-0.4-2.9-1-4.2-1.7
		c-0.3-0.2-0.7-0.3-1-0.3c-0.5,0-0.9,0.1-1.3,0.4l-2.1,1.6c-0.2,0.2-0.6,0.2-0.8,0l-4.2-4.2c-0.2-0.2-0.2-0.5,0-0.8l1.6-2.1
		c0.5-0.7,0.6-1.6,0.2-2.3c-0.7-1.3-1.3-2.7-1.7-4.2c-0.2-0.8-0.9-1.4-1.7-1.5l-2.7-0.3c-0.3,0-0.5-0.3-0.5-0.6v-6
		c0-0.3,0.2-0.5,0.5-0.6l2.6-0.3c0.8-0.1,1.5-0.7,1.7-1.5c0.4-1.5,1-2.9,1.7-4.2c0.4-0.7,0.3-1.6-0.2-2.3l-1.6-2.1
		c-0.2-0.2-0.2-0.6,0-0.8l4.2-4.2c0.2-0.2,0.5-0.2,0.8,0l2.1,1.6c0.7,0.5,1.6,0.6,2.3,0.2c1.3-0.7,2.8-1.3,4.2-1.7
		c0.8-0.2,1.4-0.9,1.5-1.7l0.3-2.6c0-0.3,0.3-0.5,0.6-0.5h6c0.3,0,0.5,0.2,0.6,0.5l0.3,2.7c0.1,0.8,0.7,1.5,1.5,1.7
		c1.5,0.4,2.9,1,4.2,1.7c0.7,0.4,1.6,0.3,2.3-0.2l2.1-1.6c0.2-0.2,0.6-0.2,0.8,0l4.2,4.2c0.2,0.2,0.2,0.5,0,0.8l-1.6,2.1
		c-0.5,0.7-0.6,1.6-0.2,2.3c0.7,1.3,1.3,2.8,1.7,4.2c0.2,0.8,0.9,1.4,1.7,1.5l2.6,0.3c0.3,0,0.5,0.3,0.5,0.6V154.4z M174.4,154.4"/>
	<path d="M150.6,136.4c-8.3,0-15,6.7-15,15c0,2.1,0.4,4.1,1.2,6c0.5,1.1,1.7,1.5,2.7,1.1c1.1-0.5,1.5-1.7,1.1-2.7
		c-0.6-1.4-0.9-2.8-0.9-4.3c0-6,4.9-10.9,10.9-10.9c6,0,10.9,4.9,10.9,10.9c0,6-4.9,10.9-10.9,10.9c-1.8,0-3.7-0.5-5.2-1.3
		c-1-0.6-2.3-0.2-2.8,0.8c-0.6,1-0.2,2.3,0.8,2.8c2.2,1.2,4.7,1.9,7.3,1.9c8.3,0,15-6.7,15-15C165.6,143.1,158.9,136.4,150.6,136.4
		L150.6,136.4z M150.6,136.4"/>
</g>
</svg>
