<?xml version="1.0" encoding="iso-8859-1"?>
<!-- Generator: Adobe Illustrator 21.1.0, SVG Export Plug-In . SVG Version: 6.00 Build 0)  -->
<svg version="1.1" id="Layer_1" xmlns="http://www.w3.org/2000/svg" xmlns:xlink="http://www.w3.org/1999/xlink" x="0px" y="0px"
	 viewBox="0 0 500 500" style="enable-background:new 0 0 500 500;" xml:space="preserve">
<g>
	<path style="fill:#FFFFFF;" d="M249.621,17.15c-99.415,0-180.31,80.893-180.31,180.329c0,71.055,29.75,142.92,86.031,207.841
		c42.029,48.492,83.682,75.969,85.441,77.116c2.683,1.757,5.765,2.629,8.85,2.629c3.071,0,6.156-0.873,8.839-2.629
		c1.757-1.148,43.419-28.624,85.451-77.105c56.278-64.931,86.028-136.797,86.028-207.851C429.95,98.043,349.057,17.15,249.621,17.15
		L249.621,17.15z M249.621,449.055c-33.161-24.71-147.982-119.819-147.982-251.575c0-81.61,66.394-148.001,147.982-148.001
		c81.61,0,148.001,66.391,148.001,148.001C397.622,329.236,282.79,424.345,249.621,449.055L249.621,449.055z M249.621,449.055"/>
	<path style="fill:#FFFFFF;" d="M249.632,125.878c-39.454,0-71.561,32.107-71.561,71.572c0,39.451,32.107,71.558,71.561,71.558
		c39.462,0,71.569-32.107,71.569-71.558C321.201,157.985,289.094,125.878,249.632,125.878L249.632,125.878z M249.632,236.68
		c-21.638,0-39.233-17.595-39.233-39.23c0-21.638,17.595-39.244,39.233-39.244c21.636,0,39.241,17.605,39.241,39.244
		C288.873,219.085,271.267,236.68,249.632,236.68L249.632,236.68z M249.632,236.68"/>
</g>
</svg>
