<?xml version="1.0" encoding="iso-8859-1"?>
<!-- Generator: Adobe Illustrator 21.1.0, SVG Export Plug-In . SVG Version: 6.00 Build 0)  -->
<svg version="1.1" id="Layer_1" xmlns="http://www.w3.org/2000/svg" xmlns:xlink="http://www.w3.org/1999/xlink" x="0px" y="0px"
	 viewBox="0 0 500 500" style="enable-background:new 0 0 500 500;" xml:space="preserve">
<g>
	<path style="fill:#FFFFFF;" d="M430.128,75.151H78.343c-31.405,0-56.93,25.525-56.93,56.93v240.431
		c0,31.4,25.525,56.93,56.93,56.93h351.686c31.405,0,56.931-25.53,56.931-56.93V132.176
		C487.054,100.775,461.529,75.151,430.128,75.151L430.128,75.151z M461.049,372.512c0,17.05-13.87,30.921-30.921,30.921H78.343
		c-17.05,0-30.92-13.871-30.92-30.921V132.176c0-17.051,13.87-30.921,30.92-30.921h351.686c17.051,0,30.921,13.87,30.921,30.921
		v240.336H461.049z M461.049,372.512"/>
	<path style="fill:#FFFFFF;" d="M315.016,249.311l113.856-102.107c5.302-4.816,5.781-13.005,0.964-18.395
		c-4.816-5.302-13.005-5.781-18.395-0.964L254.427,268.769l-30.634-27.356c-0.094-0.099-0.188-0.193-0.188-0.291
		c-0.678-0.673-1.35-1.251-2.122-1.829L96.838,127.745c-5.395-4.816-13.584-4.332-18.401,1.063
		c-4.816,5.389-4.331,13.578,1.058,18.395l115.211,102.973L79.981,357.584c-5.203,4.91-5.494,13.099-0.579,18.395
		c2.601,2.7,6.067,4.143,9.534,4.143c3.18,0,6.359-1.156,8.866-3.465L214.259,267.71l31.593,28.221
		c2.507,2.214,5.588,3.278,8.674,3.278c3.08,0,6.26-1.157,8.668-3.373l32.463-29.091l115.785,110.005
		c2.502,2.408,5.776,3.565,8.955,3.565c3.467,0,6.839-1.35,9.44-4.046c4.915-5.202,4.722-13.489-0.479-18.4L315.016,249.311z
		 M315.016,249.311"/>
</g>
</svg>
