<?xml version="1.0" encoding="utf-8"?>
<!-- Generator: Adobe Illustrator 22.1.0, SVG Export Plug-In . SVG Version: 6.00 Build 0)  -->
<svg version="1.1" id="Capa_1" xmlns="http://www.w3.org/2000/svg" xmlns:xlink="http://www.w3.org/1999/xlink" x="0px" y="0px"
	 viewBox="0 0 52 52" style="enable-background:new 0 0 52 52;" xml:space="preserve">
<style type="text/css">
	.st0{fill:none;}
</style>
<g>
	<path class="st0" d="M26,2C12.8,2,2,12.8,2,26c0,13.2,10.8,24,24,24c13.2,0,24-10.8,24-24S39.2,2,26,2z"/>
	<path d="M26,0C11.7,0,0,11.7,0,26s11.7,26,26,26s26-11.7,26-26S40.3,0,26,0z M26,50C12.8,50,2,39.2,2,26C2,12.8,12.8,2,26,2
		c13.2,0,24,10.8,24,24S39.2,50,26,50z"/>
	<path d="M38.5,25h-6.9H27h-2h-6.3h-5.2c-0.6,0-1,0.4-1,1s0.4,1,1,1H25v0.1h2V27h11.5c0.6,0,1-0.4,1-1S39.1,25,38.5,25z"/>
</g>
</svg>
