<?xml version="1.0" encoding="iso-8859-1"?>
<!-- Generator: Adobe Illustrator 21.1.0, SVG Export Plug-In . SVG Version: 6.00 Build 0)  -->
<svg version="1.1" id="Layer_1" xmlns="http://www.w3.org/2000/svg" xmlns:xlink="http://www.w3.org/1999/xlink" x="0px" y="0px"
	 viewBox="0 0 500 500" style="enable-background:new 0 0 500 500;" xml:space="preserve">
<path style="fill:#FFFFFF;" d="M382.043,308.027c-9.595-9.987-21.166-15.329-33.432-15.329c-12.164,0-23.832,5.241-33.823,15.232
	l-31.249,31.153c-2.574-1.386-5.143-2.67-7.615-3.955c-3.564-1.783-6.926-3.463-9.794-5.244
	c-29.275-18.592-55.879-42.826-81.396-74.176c-12.363-15.628-20.669-28.783-26.706-42.131c8.114-7.418,15.628-15.134,22.949-22.552
	c2.767-2.767,5.538-5.635,8.307-8.408c20.769-20.764,20.769-47.668,0-68.439l-27-27c-3.067-3.066-6.23-6.23-9.2-9.392
	c-5.93-6.133-12.165-12.464-18.592-18.399c-9.591-9.495-21.065-14.536-33.133-14.536c-12.062,0-23.735,5.042-33.625,14.536
	l-0.198,0.198L33.908,93.509c-12.657,12.658-19.877,28.087-21.462,45.989c-2.375,28.878,6.133,55.782,12.658,73.384
	c16.023,43.221,39.956,83.274,75.658,126.201c43.323,51.726,95.444,92.571,154.983,121.352
	c22.746,10.779,53.106,23.537,87.032,25.716c2.076,0.096,4.254,0.193,6.23,0.193c22.846,0,42.033-8.205,57.066-24.528
	c0.101-0.198,0.299-0.294,0.396-0.492c5.143-6.23,11.078-11.871,17.308-17.902c4.255-4.056,8.606-8.305,12.861-12.758
	c9.789-10.184,14.932-22.055,14.932-34.22c0-12.261-5.241-24.029-15.232-33.92L382.043,308.027z M417.446,412.168
	C417.35,412.168,417.35,412.269,417.446,412.168c-3.853,4.158-7.808,7.916-12.064,12.068c-6.427,6.133-12.956,12.561-19.089,19.78
	c-9.987,10.683-21.756,15.724-37.185,15.724c-1.482,0-3.067,0-4.549-0.096c-29.376-1.879-56.671-13.353-77.146-23.142
	c-55.976-27.102-105.131-65.575-145.976-114.331c-33.728-40.652-56.275-78.232-71.212-118.586
	c-9.194-24.624-12.561-43.81-11.078-61.91c0.99-11.57,5.442-21.166,13.652-29.375l33.722-33.728
	c4.849-4.548,9.992-7.021,15.034-7.021c6.235,0,11.276,3.762,14.438,6.924l0.299,0.294c6.032,5.641,11.769,11.475,17.801,17.705
	c3.066,3.167,6.23,6.331,9.397,9.596l27,26.999c10.485,10.485,10.485,20.177,0,30.661c-2.868,2.868-5.635,5.738-8.504,8.504
	c-8.31,8.504-16.221,16.419-24.827,24.132c-0.198,0.198-0.396,0.299-0.492,0.497c-8.509,8.504-6.926,16.811-5.143,22.446
	l0.294,0.894c7.022,17.009,16.912,33.032,31.945,52.121l0.101,0.096c27.294,33.625,56.076,59.838,87.823,79.914
	c4.056,2.574,8.21,4.65,12.165,6.625c3.559,1.783,6.924,3.463,9.794,5.244c0.391,0.198,0.786,0.493,1.183,0.691
	c3.365,1.68,6.529,2.473,9.794,2.473c8.209,0,13.352-5.143,15.033-6.824l33.823-33.823c3.361-3.366,8.702-7.418,14.932-7.418
	c6.133,0,11.18,3.853,14.247,7.22l0.193,0.198l54.497,54.492C427.534,391.301,427.534,401.689,417.446,412.168L417.446,412.168z
	 M417.446,412.168"/>
<path style="fill:#FFFFFF;" d="M264.941,129.212c25.913,4.352,49.451,16.618,68.241,35.408c18.795,18.79,30.96,42.327,35.408,68.241
	c1.09,6.529,6.727,11.078,13.154,11.078c0.792,0,1.482-0.096,2.275-0.198c7.321-1.188,12.165-8.109,10.977-15.43
	c-5.336-31.351-20.171-59.934-42.821-82.583c-22.648-22.65-51.232-37.485-82.584-42.821c-7.32-1.188-14.144,3.656-15.429,10.875
	C252.878,121.003,257.625,128.024,264.941,129.212L264.941,129.212z M264.941,129.212"/>
<path style="fill:#FFFFFF;" d="M479.757,224.453c-8.803-51.623-33.132-98.601-70.516-135.99
	c-37.387-37.382-84.366-61.712-135.99-70.516c-7.219-1.285-14.048,3.661-15.332,10.88c-1.188,7.321,3.661,14.144,10.977,15.43
	c46.089,7.813,88.123,29.67,121.55,63c33.432,33.429,55.188,75.462,63.002,121.551c1.087,6.524,6.728,11.073,13.155,11.073
	c0.791,0,1.482-0.096,2.275-0.198C476.097,238.598,481.043,231.672,479.757,224.453L479.757,224.453z M479.757,224.453"/>
</svg>
