<?xml version="1.0" encoding="utf-8"?>
<!-- Generator: Adobe Illustrator 19.1.0, SVG Export Plug-In . SVG Version: 6.00 Build 0)  -->
<svg version="1.1" id="Layer_1" xmlns="http://www.w3.org/2000/svg" xmlns:xlink="http://www.w3.org/1999/xlink" x="0px" y="0px"
	 viewBox="-553 317 173 167" style="enable-background:new -553 317 173 167;" xml:space="preserve">
<style type="text/css">
	.st0{fill:#F06C2F;}
	.st1{fill:#FFFFFF;}
</style>
<circle class="st0" cx="-466.5" cy="400.5" r="82.5"/>
<g>
	<path class="st1" d="M-487.4,371.9c13,0,20.4,6.4,20.4,17.7c0,11.9-7.4,18.8-20.4,18.8h-10.1V423h-11.6v-51.1H-487.4z
		 M-497.5,398.8h9.5c6.4,0,10.1-2.9,10.1-8.8c0-5.7-3.6-8.5-10.1-8.5h-9.6v17.3H-497.5z"/>
	<path class="st1" d="M-417.3,403.6c0,11.9-7.2,19.9-18.2,19.9c-5.5,0-9.8-2.2-12.6-6.1v19.9h-11.3v-53.6h11.2v5.8
		c2.8-3.9,7.1-6.1,12.4-6.1C-424.7,383.4-417.3,391.5-417.3,403.6z M-428.7,403.2c0-6.3-3.9-10.8-9.7-10.8c-5.8,0-9.8,4.5-9.8,10.8
		c0,6.5,4,10.9,9.8,10.9C-432.6,414.1-428.7,409.6-428.7,403.2z"/>
</g>
</svg>
