<?xml version="1.0" encoding="utf-8"?>
<!-- Generator: Adobe Illustrator 19.1.0, SVG Export Plug-In . SVG Version: 6.00 Build 0)  -->
<svg version="1.1" id="Layer_1" xmlns="http://www.w3.org/2000/svg" xmlns:xlink="http://www.w3.org/1999/xlink" x="0px" y="0px"
	 viewBox="-553 317 173 167" style="enable-background:new -553 317 173 167;" xml:space="preserve">
<style type="text/css">
	.st0{fill:#F06C2F;}
	.st1{fill:#FFFFFF;}
</style>
<circle class="st0" cx="-467.5" cy="401.5" r="82.5"/>
<g>
	<path class="st1" d="M-455.1,429.2c-3.9,3.5-9.5,5.6-14.5,5.6c-6.9,0-12.8-4.3-16.4-11.3c-15.3-0.4-26.7-11.5-26.7-26.1
		c0-14.9,11.8-25.9,27.4-25.9c15.6,0,27.4,11.1,27.4,25.9c0,11.4-7,20.7-17.4,24.4c2,2.4,4.5,3.9,6.9,3.9s5.8-1.5,9-4L-455.1,429.2z
		 M-485.1,413.4c8.5,0,15.5-7,15.5-16s-6.9-15.8-15.5-15.8s-15.8,6.9-15.8,15.8S-493.7,413.4-485.1,413.4z"/>
	<path class="st1" d="M-426,392.6l-3.3,6.6c-3.7-2.1-7.5-3.3-10.3-3.3c-2.3,0-3.9,0.8-3.9,2.5c0,5.1,17.8,2.5,17.7,14.4
		c0,6.9-6.1,10.5-13.7,10.5c-5.4,0-10.8-1.6-14.6-4.7l3.1-6.5c3.5,2.7,8,4.2,11.7,4.2c2.4,0,4.3-0.8,4.3-2.6
		c0-5.4-17.5-2.5-17.5-14.3c0-7,6-10.5,13.3-10.5C-434.5,388.9-429.8,390.2-426,392.6z"/>
</g>
</svg>
