<?xml version="1.0" encoding="utf-8"?>
<!-- Generator: Adobe Illustrator 21.1.0, SVG Export Plug-In . SVG Version: 6.00 Build 0)  -->
<svg version="1.1" id="Layer_1" xmlns="http://www.w3.org/2000/svg" xmlns:xlink="http://www.w3.org/1999/xlink" x="0px" y="0px"
	 viewBox="0 0 283.5 283.5" style="enable-background:new 0 0 283.5 283.5;" xml:space="preserve">
<style type="text/css">
	.st0{fill:#FFFFFF;}
	.st1{clip-path:url(#SVGID_2_);fill:#5A81A3;}
</style>
<circle class="st0" cx="191.1" cy="143.7" r="88.4"/>
<g>
	<path d="M225.9,85H83.8c-1.3,0-2.3,1-2.3,2.3v128c0,1.3,1,2.3,2.3,2.3h142.1c1.3,0,2.3-1,2.3-2.3v-128
		C228.3,86.1,227.2,85,225.9,85L225.9,85z M223.6,213.1H86.2V89.7h86.6v14.1H93.2c-1.3,0-2.3,1-2.3,2.3s1,2.3,2.3,2.3h123.3
		c1.3,0,2.3-1,2.3-2.3s-1-2.3-2.3-2.3h-39V89.7h46.1V213.1z M223.6,213.1"/>
	<path d="M203,96.8c0,1.3-1,2.3-2.3,2.3c-1.3,0-2.3-1-2.3-2.3s1-2.3,2.3-2.3C201.9,94.4,203,95.5,203,96.8L203,96.8z M203,96.8"/>
	<path d="M190.2,96.8c0,1.3-1,2.3-2.3,2.3c-1.3,0-2.3-1-2.3-2.3s1-2.3,2.3-2.3C189.1,94.4,190.2,95.5,190.2,96.8L190.2,96.8z
		 M190.2,96.8"/>
	<path d="M215.8,96.8c0,1.3-1,2.3-2.3,2.3c-1.3,0-2.3-1-2.3-2.3s1-2.3,2.3-2.3C214.7,94.4,215.8,95.5,215.8,96.8L215.8,96.8z
		 M215.8,96.8"/>
	<path d="M154.9,142.5c-9.6,0-17.4,7.8-17.4,17.4c0,9.6,7.8,17.4,17.4,17.4c2.8,0,5.5-0.7,7.9-1.9c1.1-0.6,1.6-2,1-3.2
		c-0.6-1.1-2-1.6-3.2-1c-1.8,0.9-3.8,1.4-5.8,1.4c-7,0-12.7-5.7-12.7-12.7c0-7,5.7-12.7,12.7-12.7c7,0,12.7,5.7,12.7,12.7
		c0,2-0.5,4-1.4,5.8c-0.6,1.1-0.1,2.6,1,3.2c1.1,0.6,2.6,0.1,3.2-1c1.3-2.4,1.9-5.2,1.9-7.9C172.2,150.3,164.4,142.5,154.9,142.5
		L154.9,142.5z M154.9,142.5"/>
	<path d="M193.3,151.3h-9.8c-0.6-1.9-1.3-3.8-2.3-5.5l7-7c0.4-0.4,0.7-1,0.7-1.7c0-0.6-0.2-1.2-0.7-1.7l-8.8-8.8
		c-0.9-0.9-2.4-0.9-3.3,0l-7,7c-1.8-1-3.6-1.7-5.5-2.3v-9.8c0-1.3-1-2.3-2.3-2.3h-12.5c-1.3,0-2.3,1-2.3,2.3v9.8
		c-1.9,0.6-3.8,1.3-5.5,2.3l-7-7c-0.9-0.9-2.4-0.9-3.3,0l-8.8,8.8c-0.4,0.4-0.7,1-0.7,1.7c0,0.6,0.2,1.2,0.7,1.7l7,7
		c-1,1.8-1.7,3.6-2.3,5.5h-9.8c-1.3,0-2.3,1-2.3,2.3v12.5c0,1.3,1,2.3,2.3,2.3h9.8c0.6,1.9,1.3,3.8,2.3,5.5l-7,7
		c-0.4,0.4-0.7,1-0.7,1.7c0,0.6,0.2,1.2,0.7,1.7l8.8,8.8c0.9,0.9,2.4,0.9,3.3,0l7-7c1.8,1,3.6,1.7,5.5,2.3v9.8c0,1.3,1,2.3,2.3,2.3
		h12.5c1.3,0,2.3-1,2.3-2.3v-9.8c1.9-0.6,3.8-1.3,5.5-2.3l7,7c0.9,0.9,2.4,0.9,3.3,0l8.8-8.8c0.4-0.4,0.7-1,0.7-1.7
		c0-0.6-0.2-1.2-0.7-1.7l-7-7c1-1.8,1.7-3.6,2.3-5.5h9.8c1.3,0,2.3-1,2.3-2.3v-12.5C195.7,152.4,194.6,151.3,193.3,151.3
		L193.3,151.3z M191,163.8h-9.3c-1.1,0-2,0.8-2.3,1.8c-0.6,2.7-1.7,5.2-3.1,7.6c-0.6,0.9-0.4,2.1,0.3,2.9l6.6,6.6l-5.5,5.5l-6.6-6.6
		c-0.8-0.8-2-0.9-2.9-0.3c-2.3,1.5-4.9,2.5-7.6,3.1c-1.1,0.2-1.8,1.2-1.8,2.3v9.3H151v-9.3c0-1.1-0.8-2-1.8-2.3
		c-2.7-0.6-5.2-1.7-7.6-3.1c-0.9-0.6-2.1-0.4-2.9,0.3l-6.6,6.6l-5.5-5.5l6.6-6.6c0.8-0.8,0.9-2,0.3-2.9c-1.5-2.3-2.5-4.9-3.1-7.6
		c-0.2-1.1-1.2-1.8-2.3-1.8h-9.3V156h9.3c1.1,0,2-0.8,2.3-1.8c0.6-2.7,1.7-5.2,3.1-7.6c0.6-0.9,0.4-2.1-0.3-2.9l-6.6-6.6l5.5-5.5
		l6.6,6.6c0.8,0.8,2,0.9,2.9,0.3c2.3-1.5,4.9-2.5,7.6-3.1c1.1-0.2,1.8-1.2,1.8-2.3v-9.3h7.8v9.3c0,1.1,0.8,2,1.8,2.3
		c2.7,0.6,5.2,1.7,7.6,3.1c0.9,0.6,2.1,0.4,2.9-0.3l6.6-6.6l5.5,5.5l-6.6,6.6c-0.8,0.8-0.9,2-0.3,2.9c1.5,2.3,2.5,4.9,3.1,7.6
		c0.2,1.1,1.2,1.8,2.3,1.8h9.3V163.8z M191,163.8"/>
</g>
<g>
	<defs>
		<rect id="SVGID_1_" x="4" y="126.8" width="76.5" height="76.5"/>
	</defs>
	<clipPath id="SVGID_2_">
		<use xlink:href="#SVGID_1_"  style="overflow:visible;"/>
	</clipPath>
	<path class="st1" d="M105.8,143.3c11.7,4.9,21.6,13.2,28.6,23.6c7,10.4,11.1,22.9,11.1,36.3c0,9-1.8,17.5-5.1,25.3
		c-4.9,11.7-13.2,21.6-23.6,28.6c-10.4,7-22.9,11.1-36.3,11.1c-9,0-17.5-1.8-25.3-5.1c-11.7-4.9-21.6-13.2-28.6-23.6
		c-7-10.4-11.1-22.9-11.1-36.3c0-9,1.8-17.5,5.1-25.3c4.9-11.7,13.2-21.6,23.6-28.6c10.4-7,22.9-11.1,36.3-11.1
		C89.5,138.2,98,140,105.8,143.3 M50.7,132.8c-13.7,5.8-25.4,15.5-33.7,27.7C8.8,172.7,4,187.5,4,203.3c0,10.5,2.1,20.6,6,29.8
		c5.8,13.7,15.5,25.4,27.7,33.7c12.2,8.3,26.9,13.1,42.7,13.1c10.5,0,20.6-2.1,29.7-6c13.7-5.8,25.4-15.5,33.7-27.7
		c8.3-12.2,13.1-26.9,13.1-42.7c0-10.5-2.1-20.6-6-29.8c-5.8-13.7-15.5-25.4-27.7-33.7c-12.2-8.3-26.9-13.1-42.7-13.1
		C70,126.8,59.9,128.9,50.7,132.8"/>
	<path class="st1" d="M99.1,159.2c8.6,3.6,15.9,9.7,21,17.3c5.2,7.6,8.2,16.8,8.2,26.7c0,6.6-1.3,12.9-3.8,18.6
		c-3.6,8.6-9.7,15.9-17.3,21.1c-7.6,5.2-16.8,8.2-26.7,8.2c-6.6,0-12.9-1.3-18.6-3.8c-8.6-3.6-15.9-9.7-21.1-17.3
		c-5.2-7.6-8.2-16.8-8.2-26.7c0-6.6,1.3-12.9,3.8-18.6c3.6-8.6,9.7-15.9,17.3-21c7.6-5.2,16.8-8.2,26.7-8.2
		C87.1,155.5,93.4,156.8,99.1,159.2 M31.4,170.2c-6.4,9.4-10.1,20.9-10.1,33.1c0,8.2,1.7,16,4.7,23c4.5,10.6,12,19.7,21.5,26.1
		c9.4,6.4,20.9,10.1,33.1,10.1c8.1,0,16-1.7,23-4.7c10.6-4.5,19.7-12,26.1-21.5c6.4-9.4,10.1-20.9,10.1-33.1c0-8.2-1.7-16-4.7-23
		c-4.5-10.6-12-19.7-21.5-26.1c-9.4-6.4-20.9-10.1-33.1-10.1c-8.2,0-16,1.7-23,4.7C46.8,153.2,37.8,160.7,31.4,170.2"/>
	<path class="st1" d="M92.4,175.1c5.5,2.3,10.2,6.2,13.5,11.1c3.3,4.9,5.2,10.7,5.2,17.1c0,4.2-0.9,8.2-2.4,11.9
		c-2.3,5.5-6.2,10.2-11.1,13.5c-4.9,3.3-10.7,5.2-17.1,5.2c-4.2,0-8.2-0.9-11.9-2.4c-5.5-2.3-10.2-6.2-13.5-11.1
		c-3.3-4.9-5.2-10.7-5.2-17.1c0-4.2,0.9-8.2,2.4-11.9c2.3-5.5,6.2-10.2,11.1-13.5c4.9-3.3,10.7-5.2,17.1-5.2
		C84.7,172.7,88.7,173.6,92.4,175.1 M45.7,179.8c-4.5,6.7-7.2,14.8-7.2,23.5c0,5.8,1.2,11.3,3.3,16.3c3.2,7.5,8.5,13.9,15.2,18.5
		c6.7,4.5,14.8,7.2,23.5,7.2c5.8,0,11.3-1.2,16.3-3.3c7.5-3.2,13.9-8.5,18.5-15.2c4.5-6.7,7.2-14.8,7.2-23.5
		c0-5.8-1.2-11.3-3.3-16.3c-3.2-7.5-8.5-13.9-15.2-18.5c-6.7-4.5-14.8-7.2-23.5-7.2c-5.8,0-11.3,1.2-16.3,3.3
		C56.6,167.8,50.2,173.1,45.7,179.8"/>
	<path class="st1" d="M85.7,191c2.4,1,4.4,2.7,5.8,4.8c1.4,2.1,2.3,4.6,2.3,7.4c0,1.8-0.4,3.6-1,5.2c-1,2.4-2.7,4.4-4.8,5.8
		c-2.1,1.4-4.7,2.3-7.4,2.3c-1.9,0-3.6-0.4-5.2-1c-2.4-1-4.4-2.7-5.8-4.8c-1.4-2.1-2.3-4.6-2.3-7.4c0-1.9,0.4-3.6,1-5.2
		c1-2.4,2.7-4.4,4.8-5.9c2.1-1.4,4.7-2.3,7.4-2.3C82.3,190,84.1,190.4,85.7,191 M60,189.5c-2.7,3.9-4.2,8.7-4.2,13.8
		c0,3.4,0.7,6.7,1.9,9.6c1.9,4.4,5,8.2,8.9,10.9c3.9,2.7,8.7,4.2,13.8,4.2c3.4,0,6.7-0.7,9.6-1.9c4.4-1.9,8.2-5,10.9-8.9
		c2.7-3.9,4.2-8.7,4.2-13.8c0-3.4-0.7-6.7-1.9-9.6c-1.9-4.4-5-8.2-8.9-10.9c-3.9-2.7-8.7-4.2-13.8-4.2c-3.4,0-6.7,0.7-9.6,1.9
		C66.4,182.4,62.7,185.5,60,189.5"/>
</g>
</svg>
