<?xml version="1.0" encoding="utf-8"?>
<!-- Generator: Adobe Illustrator 21.1.0, SVG Export Plug-In . SVG Version: 6.00 Build 0)  -->
<svg version="1.1" id="Layer_1" xmlns="http://www.w3.org/2000/svg" xmlns:xlink="http://www.w3.org/1999/xlink" x="0px" y="0px"
	 viewBox="0 0 283.5 283.5" style="enable-background:new 0 0 283.5 283.5;" xml:space="preserve">
<style type="text/css">
	.st0{fill:#FFFFFF;}
	.st1{clip-path:url(#SVGID_2_);fill:#5A81A3;}
</style>
<circle class="st0" cx="181" cy="135.2" r="88.4"/>
<g>
	<defs>
		<rect id="SVGID_1_" x="4" y="126.8" width="76.5" height="76.5"/>
	</defs>
	<clipPath id="SVGID_2_">
		<use xlink:href="#SVGID_1_"  style="overflow:visible;"/>
	</clipPath>
	<path class="st1" d="M105.8,143.3c11.7,4.9,21.6,13.2,28.6,23.6c7,10.4,11.1,22.9,11.1,36.3c0,9-1.8,17.5-5.1,25.3
		c-4.9,11.7-13.2,21.6-23.6,28.6c-10.4,7-22.9,11.1-36.3,11.1c-9,0-17.5-1.8-25.3-5.1c-11.7-4.9-21.6-13.2-28.6-23.6
		c-7-10.4-11.1-22.9-11.1-36.3c0-9,1.8-17.5,5.1-25.3c4.9-11.7,13.2-21.6,23.6-28.6c10.4-7,22.9-11.1,36.3-11.1
		C89.5,138.2,98,140,105.8,143.3 M50.7,132.8c-13.7,5.8-25.4,15.5-33.7,27.7C8.8,172.7,4,187.5,4,203.3c0,10.5,2.1,20.6,6,29.8
		c5.8,13.7,15.5,25.4,27.7,33.7c12.2,8.3,26.9,13.1,42.7,13.1c10.5,0,20.6-2.1,29.7-6c13.7-5.8,25.4-15.5,33.7-27.7
		c8.3-12.2,13.1-26.9,13.1-42.7c0-10.5-2.1-20.6-6-29.8c-5.8-13.7-15.5-25.4-27.7-33.7c-12.2-8.3-26.9-13.1-42.7-13.1
		C70,126.8,59.9,128.9,50.7,132.8"/>
	<path class="st1" d="M99.1,159.2c8.6,3.6,15.9,9.7,21,17.3c5.2,7.6,8.2,16.8,8.2,26.7c0,6.6-1.3,12.9-3.8,18.6
		c-3.6,8.6-9.7,15.9-17.3,21.1c-7.6,5.2-16.8,8.2-26.7,8.2c-6.6,0-12.9-1.3-18.6-3.8c-8.6-3.6-15.9-9.7-21.1-17.3
		c-5.2-7.6-8.2-16.8-8.2-26.7c0-6.6,1.3-12.9,3.8-18.6c3.6-8.6,9.7-15.9,17.3-21c7.6-5.2,16.8-8.2,26.7-8.2
		C87.1,155.5,93.4,156.8,99.1,159.2 M31.4,170.2c-6.4,9.4-10.1,20.9-10.1,33.1c0,8.2,1.7,16,4.7,23c4.5,10.6,12,19.7,21.5,26.1
		c9.4,6.4,20.9,10.1,33.1,10.1c8.1,0,16-1.7,23-4.7c10.6-4.5,19.7-12,26.1-21.5c6.4-9.4,10.1-20.9,10.1-33.1c0-8.2-1.7-16-4.7-23
		c-4.5-10.6-12-19.7-21.5-26.1c-9.4-6.4-20.9-10.1-33.1-10.1c-8.2,0-16,1.7-23,4.7C46.8,153.2,37.8,160.7,31.4,170.2"/>
	<path class="st1" d="M92.4,175.1c5.5,2.3,10.2,6.2,13.5,11.1c3.3,4.9,5.2,10.7,5.2,17.1c0,4.2-0.9,8.2-2.4,11.9
		c-2.3,5.5-6.2,10.2-11.1,13.5c-4.9,3.3-10.7,5.2-17.1,5.2c-4.2,0-8.2-0.9-11.9-2.4c-5.5-2.3-10.2-6.2-13.5-11.1
		c-3.3-4.9-5.2-10.7-5.2-17.1c0-4.2,0.9-8.2,2.4-11.9c2.3-5.5,6.2-10.2,11.1-13.5c4.9-3.3,10.7-5.2,17.1-5.2
		C84.7,172.7,88.7,173.6,92.4,175.1 M45.7,179.8c-4.5,6.7-7.2,14.8-7.2,23.5c0,5.8,1.2,11.3,3.3,16.3c3.2,7.5,8.5,13.9,15.2,18.5
		c6.7,4.5,14.8,7.2,23.5,7.2c5.8,0,11.3-1.2,16.3-3.3c7.5-3.2,13.9-8.5,18.5-15.2c4.5-6.7,7.2-14.8,7.2-23.5
		c0-5.8-1.2-11.3-3.3-16.3c-3.2-7.5-8.5-13.9-15.2-18.5c-6.7-4.5-14.8-7.2-23.5-7.2c-5.8,0-11.3,1.2-16.3,3.3
		C56.6,167.8,50.2,173.1,45.7,179.8"/>
	<path class="st1" d="M85.7,191c2.4,1,4.4,2.7,5.8,4.8c1.4,2.1,2.3,4.6,2.3,7.4c0,1.8-0.4,3.6-1,5.2c-1,2.4-2.7,4.4-4.8,5.8
		c-2.1,1.4-4.7,2.3-7.4,2.3c-1.9,0-3.6-0.4-5.2-1c-2.4-1-4.4-2.7-5.8-4.8c-1.4-2.1-2.3-4.6-2.3-7.4c0-1.9,0.4-3.6,1-5.2
		c1-2.4,2.7-4.4,4.8-5.9c2.1-1.4,4.7-2.3,7.4-2.3C82.3,190,84.1,190.4,85.7,191 M60,189.5c-2.7,3.9-4.2,8.7-4.2,13.8
		c0,3.4,0.7,6.7,1.9,9.6c1.9,4.4,5,8.2,8.9,10.9c3.9,2.7,8.7,4.2,13.8,4.2c3.4,0,6.7-0.7,9.6-1.9c4.4-1.9,8.2-5,10.9-8.9
		c2.7-3.9,4.2-8.7,4.2-13.8c0-3.4-0.7-6.7-1.9-9.6c-1.9-4.4-5-8.2-8.9-10.9c-3.9-2.7-8.7-4.2-13.8-4.2c-3.4,0-6.7,0.7-9.6,1.9
		C66.4,182.4,62.7,185.5,60,189.5"/>
</g>
<g>
	<path d="M214,81.5H88c-4,0-7,3-7,7v130.7c0,1.4,0.9,2.3,2.3,2.3h135.3c1.4,0,2.3-0.9,2.3-2.3V88.5C221,84.5,218,81.5,214,81.5
		L214,81.5z M88,86.1h126c1.4,0,2.3,0.9,2.3,2.3v11.7H85.7V88.5C85.7,87.1,86.6,86.1,88,86.1L88,86.1z M183.7,132.8H179v-16.3h18.7
		v16.3H193c-1.4,0-2.3,0.9-2.3,2.3v35H186v-35C186,133.7,185.1,132.8,183.7,132.8L183.7,132.8z M183.7,174.8h21v7H172v-7H183.7z
		 M179,216.8v-7h9.3v-4.7H179v-7h9.3v-4.7H179v-7h18.7v30.3H179z M202.3,216.8v-30.3h4.7c1.4,0,2.3-0.9,2.3-2.3v-11.7
		c0-1.4-0.9-2.3-2.3-2.3h-11.7v-32.7h4.7c1.4,0,2.3-0.9,2.3-2.3v-21c0-1.4-0.9-2.3-2.3-2.3h-23.3c-1.4,0-2.3,0.9-2.3,2.3v21
		c0,1.4,0.9,2.3,2.3,2.3h4.7v32.7h-11.7c-1.4,0-2.3,0.9-2.3,2.3v11.7c0,1.4,0.9,2.3,2.3,2.3h4.7v30.3H85.7v-112h130.7v112H202.3z
		 M202.3,216.8"/>
	<rect x="92.7" y="90.8" width="9.3" height="4.7"/>
	<rect x="109" y="90.8" width="9.3" height="4.7"/>
	<path d="M139.3,111.8H116c-12.8,0-23.3,10.5-23.3,23.3v23.3c0,12.1,9.3,21.9,21,23.1v7.2c0,3,1.6,5.4,4.2,6.5l-8.4,8.4l3.3,3.3
		l11-11h7.5l11.2,11.2l3.3-3.3l-8.4-8.4c2.6-0.9,4.4-3.5,4.4-6.5v-7.2c11.7-1.2,21-11.2,21-23.1v-23.3
		C162.7,122.3,152.2,111.8,139.3,111.8L139.3,111.8z M137,181.8v7c0,1.4-0.9,2.3-2.3,2.3h-14c-1.4,0-2.3-0.9-2.3-2.3v-7H137z
		 M158,158.5c0,10.3-8.4,18.7-18.7,18.7H130v-42h-4.7v42H116c-10.3,0-18.7-8.4-18.7-18.7v-23.3c0-10.3,8.4-18.7,18.7-18.7h23.3
		c10.3,0,18.7,8.4,18.7,18.7V158.5z M158,158.5"/>
	<rect x="141.7" y="163.1" width="7" height="4.7"/>
	<rect x="134.7" y="153.8" width="7" height="4.7"/>
	<rect x="146.3" y="137.5" width="7" height="4.7"/>
	<rect x="132.3" y="125.8" width="7" height="4.7"/>
	<rect x="106.7" y="163.1" width="7" height="4.7"/>
	<rect x="113.7" y="144.5" width="7" height="4.7"/>
	<rect x="102" y="137.5" width="7" height="4.7"/>
	<rect x="116" y="125.8" width="7" height="4.7"/>
</g>
</svg>
