<?xml version="1.0" encoding="iso-8859-1"?>
<!-- Generator: Adobe Illustrator 21.1.0, SVG Export Plug-In . SVG Version: 6.00 Build 0)  -->
<svg version="1.1" id="Layer_1" xmlns="http://www.w3.org/2000/svg" xmlns:xlink="http://www.w3.org/1999/xlink" x="0px" y="0px"
	 viewBox="0 0 350.052 462.585" style="enable-background:new 0 0 350.052 462.585;" xml:space="preserve">
<g>
	<path style="fill:#FFD445;" d="M230.43,91.072c20.951,0,37.933-16.984,37.933-37.931c0-20.951-16.982-37.933-37.933-37.933
		c-20.949,0-37.93,16.981-37.93,37.933C192.5,74.088,209.48,91.072,230.43,91.072"/>
	<path style="fill:#FFD445;" d="M112.225,199.094c20.952,0,37.934-16.986,37.934-37.933c0-20.956-16.981-37.937-37.934-37.937
		c-20.948,0-37.933,16.98-37.933,37.937C74.292,182.108,91.276,199.094,112.225,199.094"/>
	
		<line style="fill:none;stroke:#ECEDEB;stroke-width:7;stroke-linecap:round;stroke-linejoin:round;" x1="101.283" y1="105.01" x2="101.283" y2="83.386"/>
	
		<line style="fill:none;stroke:#ECEDEB;stroke-width:7;stroke-linecap:round;stroke-linejoin:round;" x1="121.106" y1="94.135" x2="121.106" y2="61.318"/>
	<rect x="25.949" y="413.402" style="fill:#2B3541;" width="16.156" height="13.686"/>
	<g>
		<path style="fill:#141F2C;" d="M297.814,196.889H139.258H34.123h-8.169l8.114,8.169v221.903l0.055,8.173h105.135h158.557
			c4.498,0,8.167-3.673,8.167-8.173V205.058C305.981,200.565,302.312,196.889,297.814,196.889"/>
		<path style="fill:#2B3541;" d="M312.112,410.882v-221.91c0-4.495-3.677-8.166-8.173-8.166H139.258H34.117h-0.124
			c-4.436,0-8.039,3.601-8.039,8.044v0.122v221.91v8.167h8.163h105.141h164.682C308.435,419.049,312.112,415.378,312.112,410.882"/>
		<path style="fill:#202A37;" d="M312.112,269.798h-4.808h-39.844h-23.049c-22.801,0-41.291,18.498-41.291,41.31
			c0,22.814,18.49,41.312,41.291,41.312h23.049h39.844h4.808V269.798z"/>
		<path style="fill:#A39085;" d="M316.906,258.621h-22.083h-39.847h-23.053c-22.803,0-41.283,18.491-41.283,41.304
			c0,22.813,18.48,41.311,41.283,41.311h23.053h39.847h22.083c4.491,0,8.164-3.676,8.164-8.168v-66.281
			C325.07,262.296,321.397,258.621,316.906,258.621"/>
		<path style="fill:#DCD7C8;" d="M245.851,299.925c0,7.693-6.233,13.932-13.922,13.932c-7.692,0-13.927-6.238-13.927-13.932
			c0-7.693,6.234-13.926,13.927-13.926C239.617,285.999,245.851,292.231,245.851,299.925"/>
		<path style="fill:#202A37;" d="M144.725,193.06H40.847H35.74v3.641v210.094h199.252
			C234.992,406.795,126.482,331.641,144.725,193.06"/>
		<path style="fill:#141F2C;" d="M42.105,427.089c0,4.443-3.598,8.046-8.044,8.046c-4.434,0-8.032-3.602-8.032-8.046
			c0-4.442,3.599-8.045,8.032-8.045C38.508,419.044,42.105,422.646,42.105,427.089"/>
	</g>
</g>
</svg>
